<svg xmlns="http://www.w3.org/2000/svg" width="2200" height="900" viewBox="0 0 2200 900"><defs><style>.cls-1{fill:#9fe3f7;stroke:#9fe3f7;}.cls-1,.cls-10,.cls-11,.cls-12,.cls-13,.cls-14,.cls-15,.cls-16,.cls-17,.cls-18,.cls-19,.cls-2,.cls-20,.cls-21,.cls-22,.cls-23,.cls-24,.cls-25,.cls-26,.cls-27,.cls-28,.cls-29,.cls-3,.cls-30,.cls-31,.cls-4,.cls-5,.cls-6,.cls-7,.cls-8,.cls-9{stroke-miterlimit:10;}.cls-1,.cls-11,.cls-12,.cls-13,.cls-14,.cls-15,.cls-16,.cls-17,.cls-18,.cls-19,.cls-2,.cls-20,.cls-21,.cls-3,.cls-4{stroke-width:2px;}.cls-2{fill:#932e2e;stroke:#932e2e;}.cls-18,.cls-3{fill:#fcfcfc;}.cls-10,.cls-3,.cls-31,.cls-6,.cls-7,.cls-8,.cls-9{stroke:#fcfcfc;}.cls-4{fill:red;stroke:red;}.cls-5{fill:#776f6f;stroke:#776f6f;}.cls-5,.cls-6{stroke-linecap:round;stroke-width:3px;}.cls-10,.cls-31,.cls-6,.cls-9{fill:none;}.cls-7,.cls-8{fill:#3a3838;}.cls-7{stroke-width:20px;}.cls-8,.cls-9{stroke-width:15px;}.cls-10{stroke-width:25px;}.cls-11{fill:#266644;stroke:#266644;}.cls-12{fill:#3ad86b;stroke:#3ad86b;}.cls-13{fill:#3a3a82;stroke:#3a3a82;}.cls-14{fill:#4d5ef7;stroke:#4d5ef7;}.cls-15{fill:#fdfffe;}.cls-15,.cls-18{stroke:#fafcfb;}.cls-16{fill:#efe352;stroke:#efe352;}.cls-17{fill:#f3ff00;stroke:#f3ff00;}.cls-19{fill:#a53ca2;stroke:#a53ca2;}.cls-20{fill:#f800ff;stroke:#f800ff;}.cls-21{fill:#333233;stroke:#333233;}.cls-22{fill:#77431d;}.cls-22,.cls-23{stroke:#1c7a39;}.cls-23{fill:#1c7a39;}.cls-24{fill:#167034;stroke:#167034;}.cls-25,.cls-26{fill:#020202;}.cls-25{stroke:#020002;}.cls-26{stroke:#000;}.cls-27{fill:#f7e969;stroke:#f7e969;}.cls-28{fill:#ed0c0c;stroke:#ed0c0c;}.cls-29{fill:#a09fa0;stroke:#a09fa0;}.cls-30{fill:#5e5e5e;stroke:#5e5e5e;}.cls-31{stroke-width:4px;}</style></defs><title>baggrund</title><g id="baggrund"><rect class="cls-1" y="2" width="2200" height="900"/></g><g id="Layer_1" data-name="Layer 1"><rect class="cls-2" x="72.2" y="3.5" width="375.13" height="314.5"/></g><g id="Layer_2" data-name="Layer 2"><path class="cls-3" d="M106.89,4.47h32.42v84.3s-14.91,26.59-32.42,0Z"/><path class="cls-3" d="M175,3.82H207.4v84.3s-14.92,26.59-32.42,0Z"/><path class="cls-3" d="M175,4.47H207.4v84.3s-14.92,26.59-32.42,0Z"/><path class="cls-3" d="M243.71,3.82h32.42v84.3s-14.91,26.59-32.42,0Z"/><path class="cls-3" d="M312.45,3.82h32.42v84.3s-14.91,26.59-32.42,0Z"/><path class="cls-3" d="M381.18,3.82h32.43v84.3s-14.92,26.59-32.43,0Z"/><path class="cls-4" d="M72.52,4.47h32.42v84.3s-14.91,26.59-32.42,0Z"/><path class="cls-4" d="M141.26,4.47h32.42v84.3s-14.92,26.59-32.42,0Z"/><path class="cls-4" d="M209.34,3.82h32.43v84.3s-14.92,26.59-32.43,0Z"/><path class="cls-4" d="M278.08,3.82H310.5v84.3s-14.91,26.59-32.42,0Z"/><path class="cls-4" d="M346.82,3.82h32.42v84.3s-14.92,26.59-32.42,0Z"/><path class="cls-4" d="M415.55,3.82H448v84.3s-14.91,26.59-32.42,0Z"/></g><g id="Layer_3" data-name="Layer 3"><line class="cls-5" x1="100.08" y1="202.58" x2="114.35" y2="192.2"/><line class="cls-5" x1="92.95" y1="197.39" x2="107.21" y2="187.01"/><line class="cls-6" x1="-9.5" y1="240.83" x2="4.76" y2="230.46"/><polygon class="cls-7" points="204.16 314.11 203.83 139.03 314.07 139.03 314.07 314.11 204.16 314.11"/><rect class="cls-8" x="339.36" y="141.62" width="92.08" height="87.54"/><rect class="cls-8" x="87.76" y="141.62" width="92.08" height="87.54"/><line class="cls-9" x1="133.8" y1="141.62" x2="133.8" y2="229.16"/><line class="cls-9" x1="87.76" y1="185.72" x2="179.84" y2="185.72"/><line class="cls-9" x1="385.4" y1="141.62" x2="385.4" y2="229.16"/><line class="cls-9" x1="339.36" y1="185.72" x2="431.44" y2="185.72"/><line class="cls-10" x1="203.83" y1="261.58" x2="314.07" y2="262.23"/><line class="cls-5" x1="106.56" y1="169.5" x2="120.83" y2="159.13"/><line class="cls-5" x1="219.39" y1="163.67" x2="233.66" y2="153.29"/><line class="cls-5" x1="215.5" y1="286.87" x2="229.77" y2="276.5"/><line class="cls-5" x1="219.39" y1="301.79" x2="253.76" y2="276.5"/><line class="cls-5" x1="221.34" y1="183.12" x2="260.25" y2="155.24"/><line class="cls-5" x1="220.69" y1="205.82" x2="286.83" y2="158.48"/><line class="cls-5" x1="106.56" y1="212.95" x2="120.83" y2="202.58"/><line class="cls-5" x1="152.6" y1="212.95" x2="166.87" y2="202.58"/><line class="cls-5" x1="144.82" y1="207.76" x2="159.09" y2="197.39"/><line class="cls-5" x1="142.88" y1="163.67" x2="157.14" y2="153.29"/><line class="cls-5" x1="151.96" y1="168.21" x2="166.22" y2="157.83"/><line class="cls-5" x1="357.52" y1="169.5" x2="371.78" y2="159.13"/><line class="cls-5" x1="357.52" y1="212.3" x2="371.78" y2="201.93"/><line class="cls-5" x1="349.09" y1="207.76" x2="363.35" y2="197.39"/><line class="cls-5" x1="402.91" y1="168.86" x2="417.17" y2="158.48"/><line class="cls-5" x1="402.91" y1="212.95" x2="417.17" y2="202.58"/><line class="cls-5" x1="395.77" y1="163.67" x2="410.04" y2="153.29"/><line class="cls-5" x1="395.77" y1="207.76" x2="410.04" y2="197.39"/><line class="cls-5" x1="350.38" y1="163.67" x2="364.65" y2="153.29"/><line class="cls-5" x1="97.49" y1="207.76" x2="111.75" y2="197.39"/><line class="cls-5" x1="99.43" y1="163.67" x2="113.7" y2="153.29"/></g><g id="huse"><rect class="cls-11" x="495.5" y="5.61" width="368.75" height="312.39"/><path class="cls-3" d="M530-.71h32.2V83s-14.81,26.41-32.2,0Z"/><path class="cls-3" d="M597-.71h32.2V83s-14.81,26.41-32.2,0Z"/><path class="cls-3" d="M664.58-.71h32.2V83s-14.81,26.41-32.2,0Z"/><path class="cls-3" d="M731.56-.71h32.21V83S749,109.43,731.56,83Z"/><path class="cls-3" d="M798.55-2h32.21V81.73s-14.82,26.41-32.21,0Z"/><path class="cls-12" d="M495.82-.71H528V83s-14.82,26.41-32.21,0Z"/><path class="cls-12" d="M563.45-.71h32.21V83s-14.82,26.41-32.21,0Z"/><path class="cls-12" d="M631.08-.71h32.21V83s-14.82,26.41-32.21,0Z"/><path class="cls-12" d="M698.07-.71h32.21V83s-14.82,26.41-32.21,0Z"/><path class="cls-12" d="M765.06-.71h32.2V83s-14.81,26.41-32.2,0Z"/><path class="cls-12" d="M832.69-.71h32.2V83s-14.81,26.41-32.2,0Z"/><polygon class="cls-7" points="625.29 306.2 624.97 132.29 734.46 132.29 734.46 306.2 625.29 306.2"/><rect class="cls-8" x="759.58" y="134.87" width="91.46" height="86.95"/><rect class="cls-8" x="509.67" y="134.87" width="91.46" height="86.95"/><line class="cls-9" x1="555.4" y1="134.87" x2="555.4" y2="221.83"/><line class="cls-9" x1="509.67" y1="178.67" x2="601.13" y2="178.67"/><line class="cls-9" x1="805.31" y1="134.87" x2="805.31" y2="221.83"/><line class="cls-9" x1="759.58" y1="178.67" x2="851.04" y2="178.67"/><line class="cls-10" x1="624.96" y1="254.03" x2="734.46" y2="254.67"/><line class="cls-5" x1="528.35" y1="162.57" x2="542.52" y2="152.26"/><line class="cls-5" x1="640.42" y1="156.77" x2="654.59" y2="146.47"/><line class="cls-5" x1="636.56" y1="279.15" x2="650.73" y2="268.85"/><line class="cls-5" x1="640.42" y1="293.97" x2="674.56" y2="268.85"/><line class="cls-5" x1="642.36" y1="176.09" x2="681" y2="148.4"/><line class="cls-5" x1="641.71" y1="198.64" x2="707.41" y2="151.62"/><line class="cls-5" x1="528.35" y1="205.72" x2="542.52" y2="195.42"/><line class="cls-5" x1="574.08" y1="205.72" x2="588.25" y2="195.42"/><line class="cls-5" x1="566.35" y1="200.57" x2="580.52" y2="190.26"/><line class="cls-5" x1="564.42" y1="156.77" x2="578.59" y2="146.47"/><line class="cls-5" x1="573.44" y1="161.28" x2="587.61" y2="150.97"/><line class="cls-5" x1="777.62" y1="162.57" x2="791.79" y2="152.26"/><line class="cls-5" x1="777.62" y1="205.08" x2="791.79" y2="194.77"/><line class="cls-5" x1="769.24" y1="200.57" x2="783.41" y2="190.26"/><line class="cls-5" x1="822.7" y1="161.92" x2="836.87" y2="151.62"/><line class="cls-5" x1="822.7" y1="205.72" x2="836.87" y2="195.42"/><line class="cls-5" x1="815.62" y1="156.77" x2="829.79" y2="146.47"/><line class="cls-5" x1="815.62" y1="200.57" x2="829.79" y2="190.26"/><line class="cls-5" x1="770.53" y1="156.77" x2="784.7" y2="146.47"/><line class="cls-5" x1="519.33" y1="200.57" x2="533.5" y2="190.26"/><line class="cls-5" x1="521.26" y1="156.77" x2="535.43" y2="146.47"/><rect class="cls-13" x="1333.32" y="4.32" width="371.45" height="314.68"/><path class="cls-14" d="M1333,4h32.44V88.35s-14.92,26.6-32.44,0Z"/><path class="cls-15" d="M1366.74,4h32.44V88.35s-14.92,26.6-32.44,0Z"/><path class="cls-15" d="M1435.51,4H1468V88.35s-14.92,26.6-32.44,0Z"/><path class="cls-15" d="M1503,4h32.44V88.35s-14.92,26.6-32.44,0Z"/><path class="cls-15" d="M1570.47,4h32.44V88.35s-14.93,26.6-32.44,0Z"/><path class="cls-15" d="M1638.59,4H1671V88.35s-14.92,26.6-32.44,0Z"/><path class="cls-14" d="M1401.13,4h32.44V88.35s-14.93,26.6-32.44,0Z"/><path class="cls-14" d="M1469.25,4h32.44V88.35s-14.92,26.6-32.44,0Z"/><path class="cls-14" d="M1536.73,4h32.44V88.35s-14.92,26.6-32.44,0Z"/><path class="cls-14" d="M1604.2,4h32.45V88.35s-14.93,26.6-32.45,0Z"/><path class="cls-14" d="M1672.33,4h32.44V88.35s-14.92,26.6-32.44,0Z"/><polygon class="cls-7" points="1462.76 314.46 1462.44 139.28 1572.74 139.28 1572.74 314.46 1462.76 314.46"/><rect class="cls-8" x="1598.04" y="141.87" width="92.13" height="87.59"/><rect class="cls-8" x="1346.3" y="141.87" width="92.13" height="87.59"/><line class="cls-9" x1="1392.37" y1="141.87" x2="1392.37" y2="229.46"/><line class="cls-9" x1="1346.3" y1="185.99" x2="1438.43" y2="185.99"/><line class="cls-9" x1="1644.11" y1="141.87" x2="1644.11" y2="229.46"/><line class="cls-9" x1="1598.04" y1="185.99" x2="1690.17" y2="185.99"/><line class="cls-10" x1="1462.44" y1="261.9" x2="1572.74" y2="262.55"/><line class="cls-5" x1="1365.12" y1="169.77" x2="1379.39" y2="159.39"/><line class="cls-5" x1="1478.01" y1="163.93" x2="1492.28" y2="153.55"/><line class="cls-5" x1="1474.12" y1="287.21" x2="1488.39" y2="276.83"/><line class="cls-5" x1="1478.01" y1="302.13" x2="1512.4" y2="276.83"/><line class="cls-5" x1="1479.96" y1="183.4" x2="1518.89" y2="155.5"/><line class="cls-5" x1="1479.31" y1="206.11" x2="1545.49" y2="158.74"/><line class="cls-5" x1="1365.12" y1="213.24" x2="1379.39" y2="202.86"/><line class="cls-5" x1="1411.18" y1="213.24" x2="1425.46" y2="202.86"/><line class="cls-5" x1="1403.4" y1="208.05" x2="1417.67" y2="197.67"/><line class="cls-5" x1="1401.45" y1="163.93" x2="1415.72" y2="153.55"/><line class="cls-5" x1="1410.53" y1="168.47" x2="1424.81" y2="158.09"/><line class="cls-5" x1="1616.21" y1="169.77" x2="1630.48" y2="159.39"/><line class="cls-5" x1="1616.21" y1="212.59" x2="1630.48" y2="202.21"/><line class="cls-5" x1="1607.77" y1="208.05" x2="1622.05" y2="197.67"/><line class="cls-5" x1="1661.63" y1="169.12" x2="1675.9" y2="158.74"/><line class="cls-5" x1="1661.63" y1="213.24" x2="1675.9" y2="202.86"/><line class="cls-5" x1="1654.49" y1="163.93" x2="1668.76" y2="153.55"/><line class="cls-5" x1="1654.49" y1="208.05" x2="1668.76" y2="197.67"/><line class="cls-5" x1="1609.07" y1="163.93" x2="1623.35" y2="153.55"/><line class="cls-5" x1="1356.03" y1="208.05" x2="1370.31" y2="197.67"/><line class="cls-5" x1="1357.98" y1="163.93" x2="1372.25" y2="153.55"/><rect class="cls-16" x="1753.32" y="4.32" width="371.45" height="314.68"/><polygon class="cls-7" points="1883.41 314.46 1883.09 139.28 1993.39 139.28 1993.39 314.46 1883.41 314.46"/><rect class="cls-8" x="2018.69" y="141.87" width="92.13" height="87.59"/><rect class="cls-8" x="1766.95" y="141.87" width="92.13" height="87.59"/><line class="cls-9" x1="1813.02" y1="141.87" x2="1813.02" y2="229.46"/><line class="cls-9" x1="1766.95" y1="185.99" x2="1859.08" y2="185.99"/><line class="cls-9" x1="2064.76" y1="141.87" x2="2064.76" y2="229.46"/><line class="cls-9" x1="2018.69" y1="185.99" x2="2110.82" y2="185.99"/><line class="cls-10" x1="1883.09" y1="261.9" x2="1993.39" y2="262.55"/><line class="cls-5" x1="1785.77" y1="169.77" x2="1800.04" y2="159.39"/><line class="cls-5" x1="1898.66" y1="163.93" x2="1912.93" y2="153.55"/><line class="cls-5" x1="1894.77" y1="287.21" x2="1909.04" y2="276.83"/><line class="cls-5" x1="1898.66" y1="302.13" x2="1933.05" y2="276.83"/><line class="cls-5" x1="1900.61" y1="183.4" x2="1939.53" y2="155.5"/><line class="cls-5" x1="1899.96" y1="206.11" x2="1966.14" y2="158.74"/><line class="cls-5" x1="1785.77" y1="213.24" x2="1800.04" y2="202.86"/><line class="cls-5" x1="1831.83" y1="213.24" x2="1846.11" y2="202.86"/><line class="cls-5" x1="1824.05" y1="208.05" x2="1838.32" y2="197.67"/><line class="cls-5" x1="1822.1" y1="163.93" x2="1836.37" y2="153.55"/><line class="cls-5" x1="1831.18" y1="168.47" x2="1845.46" y2="158.09"/><line class="cls-5" x1="2036.86" y1="169.77" x2="2051.13" y2="159.39"/><line class="cls-5" x1="2036.86" y1="212.59" x2="2051.13" y2="202.21"/><line class="cls-5" x1="2028.42" y1="208.05" x2="2042.7" y2="197.67"/><line class="cls-5" x1="2082.27" y1="169.12" x2="2096.55" y2="158.74"/><line class="cls-5" x1="2082.27" y1="213.24" x2="2096.55" y2="202.86"/><line class="cls-5" x1="2075.14" y1="163.93" x2="2089.41" y2="153.55"/><line class="cls-5" x1="2075.14" y1="208.05" x2="2089.41" y2="197.67"/><line class="cls-5" x1="2029.72" y1="163.93" x2="2043.99" y2="153.55"/><line class="cls-5" x1="1776.68" y1="208.05" x2="1790.96" y2="197.67"/><line class="cls-5" x1="1778.63" y1="163.93" x2="1792.9" y2="153.55"/><path class="cls-17" d="M1753,4h32.44V88.35s-14.92,26.6-32.44,0Z"/><path class="cls-18" d="M1787.39,4h32.44V88.35s-14.92,26.6-32.44,0Z"/><path class="cls-18" d="M1923,4h32.44V88.35s-14.92,26.6-32.44,0Z"/><path class="cls-18" d="M2058.59,4H2091V88.35s-14.92,26.6-32.44,0Z"/><path class="cls-18" d="M1990.47,4h32.44V88.35s-14.93,26.6-32.44,0Z"/><path class="cls-18" d="M1854.86,4h32.44V88.35s-14.92,26.6-32.44,0Z"/><path class="cls-17" d="M1821.13,4h32.44V88.35s-14.93,26.6-32.44,0Z"/><path class="cls-17" d="M1889.25,4h32.44V88.35s-14.92,26.6-32.44,0Z"/><path class="cls-17" d="M1956.73,4h32.44V88.35s-14.92,26.6-32.44,0Z"/><path class="cls-17" d="M2024.2,4h32.45V88.35s-14.93,26.6-32.45,0Z"/><path class="cls-17" d="M2092.33,4h32.44V88.35s-14.92,26.6-32.44,0Z"/><rect class="cls-19" x="912.2" y="0.5" width="375.13" height="314.5"/><path class="cls-3" d="M946.89,1.47h32.42v84.3s-14.91,26.59-32.42,0Z"/><path class="cls-3" d="M1015,.82h32.42v84.3s-14.92,26.59-32.42,0Z"/><path class="cls-3" d="M1015,1.47h32.42v84.3s-14.92,26.59-32.42,0Z"/><path class="cls-3" d="M1083.71.82h32.42v84.3s-14.91,26.59-32.42,0Z"/><path class="cls-3" d="M1152.45.82h32.42v84.3s-14.91,26.59-32.42,0Z"/><path class="cls-3" d="M1221.18.82h32.43v84.3s-14.92,26.59-32.43,0Z"/><path class="cls-20" d="M912.52,1.47h32.42v84.3s-14.91,26.59-32.42,0Z"/><path class="cls-20" d="M981.26,1.47h32.42v84.3s-14.92,26.59-32.42,0Z"/><path class="cls-20" d="M1049.34.82h32.43v84.3s-14.92,26.59-32.43,0Z"/><path class="cls-20" d="M1118.08.82h32.42v84.3s-14.91,26.59-32.42,0Z"/><path class="cls-20" d="M1186.82.82h32.42v84.3s-14.92,26.59-32.42,0Z"/><path class="cls-20" d="M1256.55,1.82H1289v84.3s-14.91,26.59-32.42,0Z"/><line class="cls-5" x1="941.08" y1="194.58" x2="955.35" y2="184.2"/><line class="cls-5" x1="933.95" y1="189.39" x2="948.21" y2="179.01"/><polygon class="cls-7" points="1045.16 306.11 1044.83 131.03 1155.07 131.03 1155.07 306.11 1045.16 306.11"/><rect class="cls-8" x="1180.36" y="133.62" width="92.08" height="87.54"/><rect class="cls-8" x="928.76" y="133.62" width="92.08" height="87.54"/><line class="cls-9" x1="974.8" y1="133.62" x2="974.8" y2="221.16"/><line class="cls-9" x1="928.76" y1="177.72" x2="1020.84" y2="177.72"/><line class="cls-9" x1="1226.4" y1="133.62" x2="1226.4" y2="221.16"/><line class="cls-9" x1="1180.36" y1="177.72" x2="1272.44" y2="177.72"/><line class="cls-10" x1="1044.83" y1="253.58" x2="1155.07" y2="254.23"/><line class="cls-5" x1="947.56" y1="161.5" x2="961.83" y2="151.13"/><line class="cls-5" x1="1060.39" y1="155.67" x2="1074.66" y2="145.29"/><line class="cls-5" x1="1056.5" y1="278.87" x2="1070.77" y2="268.5"/><line class="cls-5" x1="1060.39" y1="293.79" x2="1094.76" y2="268.5"/><line class="cls-5" x1="1062.34" y1="175.12" x2="1101.25" y2="147.24"/><line class="cls-5" x1="1061.69" y1="197.82" x2="1127.83" y2="150.48"/><line class="cls-5" x1="947.56" y1="204.95" x2="961.83" y2="194.58"/><line class="cls-5" x1="993.6" y1="204.95" x2="1007.87" y2="194.58"/><line class="cls-5" x1="985.82" y1="199.76" x2="1000.09" y2="189.39"/><line class="cls-5" x1="983.88" y1="155.67" x2="998.14" y2="145.29"/><line class="cls-5" x1="992.96" y1="160.21" x2="1007.22" y2="149.83"/><line class="cls-5" x1="1198.52" y1="161.5" x2="1212.78" y2="151.13"/><line class="cls-5" x1="1198.52" y1="204.3" x2="1212.78" y2="193.93"/><line class="cls-5" x1="1190.09" y1="199.76" x2="1204.35" y2="189.39"/><line class="cls-5" x1="1243.91" y1="160.86" x2="1258.17" y2="150.48"/><line class="cls-5" x1="1243.91" y1="204.95" x2="1258.17" y2="194.58"/><line class="cls-5" x1="1236.77" y1="155.67" x2="1251.04" y2="145.29"/><line class="cls-5" x1="1236.77" y1="199.76" x2="1251.04" y2="189.39"/><line class="cls-5" x1="1191.38" y1="155.67" x2="1205.65" y2="145.29"/><line class="cls-5" x1="938.49" y1="199.76" x2="952.75" y2="189.39"/><line class="cls-5" x1="940.43" y1="155.67" x2="954.7" y2="145.29"/></g><g id="vej"><polygon class="cls-21" points="-2 342 2200 342 2200 934.88 0 937 -2 342"/></g><g id="træer"><rect class="cls-22" x="456.47" y="196.55" width="30.7" height="145.95"/><circle class="cls-23" cx="472.63" cy="93.14" r="57.63"/><circle class="cls-24" cx="538.87" cy="116.3" r="57.63"/><ellipse class="cls-24" cx="461.86" cy="164.23" rx="53.86" ry="57.63"/><ellipse class="cls-23" cx="520.56" cy="181.08" rx="53.86" ry="57.63"/><rect class="cls-22" x="872.47" y="192.55" width="30.7" height="145.95"/><circle class="cls-23" cx="888.63" cy="89.14" r="57.63"/><circle class="cls-24" cx="954.87" cy="112.3" r="57.63"/><ellipse class="cls-24" cx="877.86" cy="160.23" rx="53.86" ry="57.63"/><ellipse class="cls-23" cx="936.56" cy="179.08" rx="53.86" ry="57.63"/><rect class="cls-22" x="16.47" y="192.55" width="30.7" height="145.95"/><circle class="cls-23" cx="32.63" cy="89.14" r="57.63"/><circle class="cls-24" cx="98.87" cy="112.3" r="57.63"/><ellipse class="cls-24" cx="21.86" cy="160.23" rx="53.86" ry="57.63"/><ellipse class="cls-23" cx="80.56" cy="179.08" rx="53.86" ry="57.63"/><rect class="cls-22" x="1295.47" y="189.55" width="30.7" height="145.95"/><circle class="cls-23" cx="1311.63" cy="86.14" r="57.63"/><circle class="cls-24" cx="1377.87" cy="109.3" r="57.63"/><ellipse class="cls-24" cx="1300.86" cy="157.23" rx="53.86" ry="57.63"/><ellipse class="cls-23" cx="1359.56" cy="176.08" rx="53.86" ry="57.63"/><rect class="cls-22" x="2140.47" y="193.55" width="30.7" height="145.95"/><circle class="cls-23" cx="2156.63" cy="90.14" r="57.63"/><circle class="cls-24" cx="2222.87" cy="113.3" r="57.63"/><ellipse class="cls-24" cx="2145.86" cy="161.23" rx="53.86" ry="57.63"/><ellipse class="cls-23" cx="2204.56" cy="180.08" rx="53.86" ry="57.63"/><rect class="cls-22" x="1714.47" y="196.55" width="30.7" height="145.95"/><circle class="cls-23" cx="1730.63" cy="93.14" r="57.63"/><circle class="cls-24" cx="1796.87" cy="116.3" r="57.63"/><ellipse class="cls-24" cx="1719.86" cy="164.23" rx="53.86" ry="57.63"/><ellipse class="cls-23" cx="1778.56" cy="183.08" rx="53.86" ry="57.63"/></g><g id="grå_biler_ved_huse" data-name="grå biler ved huse"><ellipse class="cls-25" cx="94.06" cy="399.93" rx="18.9" ry="18.07"/><ellipse class="cls-26" cx="206.43" cy="399.93" rx="18.9" ry="18.07"/><ellipse class="cls-27" cx="32.25" cy="365.75" rx="6.64" ry="6.35"/><ellipse class="cls-28" cx="254.44" cy="359.4" rx="6.64" ry="6.35"/><path class="cls-29" d="M22.55,403.35s-9.71-53.72,53.12-55.67c0,0-11.24-55.18,67.42-56.16,0,0,70-8.79,73,50.79,0,0,50.56-6.35,49,54.69l-34.73,1s-22.48-29.3-47.51.49l-66.4,1.46s-26-30.27-46.48,3.42Z"/><path class="cls-30" d="M85.89,345.24s-5.62-43,49-46.88v46.88Z"/><path class="cls-30" d="M143.6,298.36v46.88h60.79S202.34,294,143.6,298.36Z"/><ellipse class="cls-25" cx="350.06" cy="399.93" rx="18.9" ry="18.07"/><ellipse class="cls-26" cx="462.43" cy="399.93" rx="18.9" ry="18.07"/><ellipse class="cls-27" cx="288.25" cy="365.75" rx="6.64" ry="6.35"/><ellipse class="cls-28" cx="510.44" cy="359.4" rx="6.64" ry="6.35"/><path class="cls-29" d="M278.55,403.35s-9.71-53.72,53.12-55.67c0,0-11.24-55.18,67.42-56.16,0,0,70-8.79,73.05,50.79,0,0,50.56-6.35,49,54.69l-34.73,1s-22.48-29.3-47.51.49l-66.4,1.46s-26-30.27-46.48,3.42Z"/><path class="cls-30" d="M341.89,345.24s-5.62-43,49-46.88v46.88Z"/><path class="cls-30" d="M399.6,298.36v46.88h60.79S458.34,294,399.6,298.36Z"/><ellipse class="cls-25" cx="1634.06" cy="400.93" rx="18.9" ry="18.07"/><ellipse class="cls-26" cx="1746.43" cy="400.93" rx="18.9" ry="18.07"/><ellipse class="cls-27" cx="1572.25" cy="366.75" rx="6.64" ry="6.35"/><ellipse class="cls-28" cx="1794.44" cy="360.4" rx="6.64" ry="6.35"/><path class="cls-29" d="M1562.55,404.35s-9.71-53.72,53.12-55.67c0,0-11.24-55.18,67.42-56.16,0,0,70-8.79,73.05,50.79,0,0,50.56-6.35,49,54.69l-34.73,1s-22.48-29.3-47.51.49l-66.4,1.46s-26-30.27-46.48,3.42Z"/><path class="cls-30" d="M1625.89,346.24s-5.62-43,49-46.88v46.88Z"/><path class="cls-30" d="M1683.6,299.36v46.88h60.79S1742.34,295,1683.6,299.36Z"/><ellipse class="cls-25" cx="1893.06" cy="400.93" rx="18.9" ry="18.07"/><ellipse class="cls-26" cx="2005.43" cy="400.93" rx="18.9" ry="18.07"/><ellipse class="cls-27" cx="1831.25" cy="366.75" rx="6.64" ry="6.35"/><ellipse class="cls-28" cx="2053.44" cy="360.4" rx="6.64" ry="6.35"/><path class="cls-29" d="M1821.55,404.35s-9.71-53.72,53.12-55.67c0,0-11.24-55.18,67.42-56.16,0,0,70-8.79,73.05,50.79,0,0,50.56-6.35,49,54.69l-34.73,1s-22.48-29.3-47.51.49l-66.4,1.46s-26-30.27-46.48,3.42Z"/><path class="cls-30" d="M1884.89,346.24s-5.62-43,49-46.88v46.88Z"/><path class="cls-30" d="M1942.6,299.36v46.88h60.79S2001.34,295,1942.6,299.36Z"/><ellipse class="cls-25" cx="2150.06" cy="399.93" rx="18.9" ry="18.07"/><ellipse class="cls-27" cx="2088.25" cy="365.75" rx="6.64" ry="6.35"/><path class="cls-29" d="M2078.55,403.35s-9.71-53.72,53.12-55.67c0,0-11.24-55.18,67.42-56.16,0,0,70-8.79,73,50.79,0,0,50.56-6.35,49,54.69l-34.73,1s-22.48-29.3-47.51.49l-66.4,1.46s-26.05-30.27-46.48,3.42Z"/><path class="cls-30" d="M2141.89,345.24s-5.62-43,49-46.88v46.88Z"/><path class="cls-30" d="M2199.6,298.36v46.88h60.79S2258.34,294,2199.6,298.36Z"/><ellipse class="cls-25" cx="861.06" cy="400.93" rx="18.9" ry="18.07"/><ellipse class="cls-26" cx="973.43" cy="400.93" rx="18.9" ry="18.07"/><ellipse class="cls-27" cx="799.25" cy="366.75" rx="6.64" ry="6.35"/><ellipse class="cls-28" cx="1021.44" cy="360.4" rx="6.64" ry="6.35"/><path class="cls-29" d="M789.55,404.35s-9.71-53.72,53.12-55.67c0,0-11.24-55.18,67.42-56.16,0,0,70-8.79,73,50.79,0,0,50.56-6.35,49,54.69l-34.73,1s-22.48-29.3-47.51.49l-66.4,1.46s-26-30.27-46.48,3.42Z"/><path class="cls-30" d="M852.89,346.24s-5.62-43,49-46.88v46.88Z"/><path class="cls-30" d="M910.6,299.36v46.88h60.79S969.34,295,910.6,299.36Z"/><ellipse class="cls-25" cx="1119.03" cy="400.9" rx="18.9" ry="18.07"/><ellipse class="cls-26" cx="1231.41" cy="400.97" rx="18.9" ry="18.07"/><ellipse class="cls-27" cx="1057.25" cy="366.69" rx="6.64" ry="6.35"/><ellipse class="cls-28" cx="1279.44" cy="360.46" rx="6.64" ry="6.35"/><path class="cls-29" d="M1047.52,404.28s-9.67-53.72,53.15-55.64c0,0-11.2-55.18,67.46-56.12,0,0,70-8.75,73,50.83,0,0,50.57-6.32,49,54.72l-34.74,1s-22.46-29.32-47.5.46l-66.4,1.43s-26-30.29-46.48,3.39Z"/><path class="cls-30" d="M1110.89,346.21s-5.59-43,49.06-46.86l0,46.88Z"/><path class="cls-30" d="M1168.63,299.36l0,46.88,60.78,0S1227.38,295,1168.63,299.36Z"/><ellipse class="cls-25" cx="1378.06" cy="400.93" rx="18.9" ry="18.07"/><ellipse class="cls-26" cx="1490.43" cy="400.93" rx="18.9" ry="18.07"/><ellipse class="cls-27" cx="1316.25" cy="366.75" rx="6.64" ry="6.35"/><ellipse class="cls-28" cx="1538.44" cy="360.4" rx="6.64" ry="6.35"/><path class="cls-29" d="M1306.55,404.35s-9.71-53.72,53.12-55.67c0,0-11.24-55.18,67.42-56.16,0,0,70-8.79,73.05,50.79,0,0,50.56-6.35,49,54.69l-34.73,1s-22.48-29.3-47.51.49l-66.4,1.46s-26-30.27-46.48,3.42Z"/><path class="cls-30" d="M1369.89,346.24s-5.62-43,49-46.88v46.88Z"/><path class="cls-30" d="M1427.6,299.36v46.88h60.79S1486.34,295,1427.6,299.36Z"/></g><g id="vejstreg"><line class="cls-31" x1="-2" y1="438" x2="2244" y2="450"/><line class="cls-31" x1="41" y1="640" x2="160" y2="640"/><line class="cls-31" x1="285" y1="640" x2="404" y2="640"/><line class="cls-31" x1="537" y1="640" x2="656" y2="640"/><line class="cls-31" x1="773" y1="640" x2="892" y2="640"/><line class="cls-31" x1="1022" y1="640" x2="1141" y2="640"/><line class="cls-31" x1="1271" y1="640" x2="1390" y2="640"/><line class="cls-31" x1="1519" y1="639" x2="1638" y2="639"/><line class="cls-31" x1="1770" y1="640" x2="1889" y2="640"/><line class="cls-31" x1="2019" y1="640" x2="2138" y2="640"/><line class="cls-31" x1="-2" y1="829" x2="2230" y2="833"/></g><g id="Layer_10" data-name="Layer 10"><ellipse class="cls-25" cx="13.06" cy="883.93" rx="18.9" ry="18.07"/><ellipse class="cls-26" cx="125.43" cy="883.93" rx="18.9" ry="18.07"/><ellipse class="cls-28" cx="173.44" cy="843.4" rx="6.64" ry="6.35"/><path class="cls-29" d="M-58.45,887.35s-9.71-53.72,53.12-55.67c0,0-11.24-55.18,67.42-56.16,0,0,70-8.79,73,50.79,0,0,50.56-6.35,49,54.69l-34.73,1s-22.48-29.3-47.51.49l-66.4,1.46s-26-30.27-46.48,3.42Z"/><path class="cls-30" d="M4.89,829.24s-5.62-43,49-46.88v46.88Z"/><path class="cls-30" d="M62.6,782.36v46.88h60.79S121.34,778,62.6,782.36Z"/><ellipse class="cls-25" cx="276.06" cy="884.93" rx="18.9" ry="18.07"/><ellipse class="cls-26" cx="388.43" cy="884.93" rx="18.9" ry="18.07"/><ellipse class="cls-27" cx="214.25" cy="850.75" rx="6.64" ry="6.35"/><ellipse class="cls-28" cx="436.44" cy="844.4" rx="6.64" ry="6.35"/><path class="cls-29" d="M204.55,888.35s-9.71-53.72,53.12-55.67c0,0-11.24-55.18,67.42-56.16,0,0,70-8.79,73.05,50.79,0,0,50.56-6.35,49,54.69l-34.73,1s-22.48-29.3-47.51.49l-66.4,1.46s-26-30.27-46.48,3.42Z"/><path class="cls-30" d="M267.89,830.24s-5.62-43,49-46.88v46.88Z"/><path class="cls-30" d="M325.6,783.36v46.88h60.79S384.34,779,325.6,783.36Z"/><ellipse class="cls-25" cx="539.06" cy="888.93" rx="18.9" ry="18.07"/><ellipse class="cls-26" cx="651.43" cy="888.93" rx="18.9" ry="18.07"/><ellipse class="cls-27" cx="477.25" cy="854.75" rx="6.64" ry="6.35"/><ellipse class="cls-28" cx="699.44" cy="848.4" rx="6.64" ry="6.35"/><path class="cls-29" d="M467.55,892.35s-9.71-53.72,53.12-55.67c0,0-11.24-55.18,67.42-56.16,0,0,70-8.79,73,50.79,0,0,50.56-6.35,49,54.69l-34.73,1s-22.48-29.3-47.51.49l-66.4,1.46s-26-30.27-46.48,3.42Z"/><path class="cls-30" d="M530.89,834.24s-5.62-43,49-46.88v46.88Z"/><path class="cls-30" d="M588.6,787.36v46.88h60.79S647.34,783,588.6,787.36Z"/><ellipse class="cls-25" cx="797.06" cy="887.93" rx="18.9" ry="18.07"/><ellipse class="cls-26" cx="909.43" cy="887.93" rx="18.9" ry="18.07"/><ellipse class="cls-27" cx="735.25" cy="853.75" rx="6.64" ry="6.35"/><ellipse class="cls-28" cx="957.44" cy="847.4" rx="6.64" ry="6.35"/><path class="cls-29" d="M725.55,891.35s-9.71-53.72,53.12-55.67c0,0-11.24-55.18,67.42-56.16,0,0,70-8.79,73,50.79,0,0,50.56-6.35,49,54.69l-34.73,1s-22.48-29.3-47.51.49l-66.4,1.46s-26-30.27-46.48,3.42Z"/><path class="cls-30" d="M788.89,833.24s-5.62-43,49-46.88v46.88Z"/><path class="cls-30" d="M846.6,786.36v46.88h60.79S905.34,782,846.6,786.36Z"/><ellipse class="cls-25" cx="1069.06" cy="887.93" rx="18.9" ry="18.07"/><ellipse class="cls-26" cx="1181.43" cy="887.93" rx="18.9" ry="18.07"/><ellipse class="cls-27" cx="1007.25" cy="853.75" rx="6.64" ry="6.35"/><ellipse class="cls-28" cx="1229.44" cy="847.4" rx="6.64" ry="6.35"/><path class="cls-29" d="M997.55,891.35s-9.71-53.72,53.12-55.67c0,0-11.24-55.18,67.42-56.16,0,0,70-8.79,73.05,50.79,0,0,50.56-6.35,49,54.69l-34.73,1s-22.48-29.3-47.51.49l-66.4,1.46s-26-30.27-46.48,3.42Z"/><path class="cls-30" d="M1060.89,833.24s-5.62-43,49-46.88v46.88Z"/><path class="cls-30" d="M1118.6,786.36v46.88h60.79S1177.34,782,1118.6,786.36Z"/><ellipse class="cls-25" cx="1328.06" cy="889.93" rx="18.9" ry="18.07"/><ellipse class="cls-26" cx="1440.43" cy="889.93" rx="18.9" ry="18.07"/><ellipse class="cls-27" cx="1266.25" cy="855.75" rx="6.64" ry="6.35"/><ellipse class="cls-28" cx="1488.44" cy="849.4" rx="6.64" ry="6.35"/><path class="cls-29" d="M1256.55,893.35s-9.71-53.72,53.12-55.67c0,0-11.24-55.18,67.42-56.16,0,0,70-8.79,73.05,50.79,0,0,50.56-6.35,49,54.69l-34.73,1s-22.48-29.3-47.51.49l-66.4,1.46s-26-30.27-46.48,3.42Z"/><path class="cls-30" d="M1319.89,835.24s-5.62-43,49-46.88v46.88Z"/><path class="cls-30" d="M1377.6,788.36v46.88h60.79S1436.34,784,1377.6,788.36Z"/><ellipse class="cls-25" cx="1589.06" cy="889.93" rx="18.9" ry="18.07"/><ellipse class="cls-26" cx="1701.43" cy="889.93" rx="18.9" ry="18.07"/><ellipse class="cls-27" cx="1527.25" cy="855.75" rx="6.64" ry="6.35"/><ellipse class="cls-28" cx="1749.44" cy="849.4" rx="6.64" ry="6.35"/><path class="cls-29" d="M1517.55,893.35s-9.71-53.72,53.12-55.67c0,0-11.24-55.18,67.42-56.16,0,0,70-8.79,73.05,50.79,0,0,50.56-6.35,49,54.69l-34.73,1s-22.48-29.3-47.51.49l-66.4,1.46s-26-30.27-46.48,3.42Z"/><path class="cls-30" d="M1580.89,835.24s-5.62-43,49-46.88v46.88Z"/><path class="cls-30" d="M1638.6,788.36v46.88h60.79S1697.34,784,1638.6,788.36Z"/><ellipse class="cls-25" cx="1850.06" cy="888.93" rx="18.9" ry="18.07"/><ellipse class="cls-26" cx="1962.43" cy="888.93" rx="18.9" ry="18.07"/><ellipse class="cls-27" cx="1788.25" cy="854.75" rx="6.64" ry="6.35"/><ellipse class="cls-28" cx="2010.44" cy="848.4" rx="6.64" ry="6.35"/><path class="cls-29" d="M1778.55,892.35s-9.71-53.72,53.12-55.67c0,0-11.24-55.18,67.42-56.16,0,0,70-8.79,73.05,50.79,0,0,50.56-6.35,49,54.69l-34.73,1s-22.48-29.3-47.51.49l-66.4,1.46s-26-30.27-46.48,3.42Z"/><path class="cls-30" d="M1841.89,834.24s-5.62-43,49-46.88v46.88Z"/><path class="cls-30" d="M1899.6,787.36v46.88h60.79S1958.34,783,1899.6,787.36Z"/><ellipse class="cls-25" cx="2112.06" cy="888.93" rx="18.9" ry="18.07"/><ellipse class="cls-27" cx="2050.25" cy="854.75" rx="6.64" ry="6.35"/><path class="cls-29" d="M2040.55,892.35s-9.71-53.72,53.12-55.67c0,0-11.24-55.18,67.42-56.16,0,0,70-8.79,73,50.79,0,0,50.56-6.35,49,54.69l-34.73,1s-22.48-29.3-47.51.49l-66.4,1.46s-26.05-30.27-46.48,3.42Z"/><path class="cls-30" d="M2103.89,834.24s-5.62-43,49-46.88v46.88Z"/><path class="cls-30" d="M2161.6,787.36v46.88h60.79S2220.34,783,2161.6,787.36Z"/></g></svg>
