<svg id="Layer_1" data-name="Layer 1" xmlns="http://www.w3.org/2000/svg" width="477.13" height="260.93" viewBox="0 0 477.13 260.93"><defs><style>.cls-1,.cls-2{fill:#020202;}.cls-1{stroke:#020002;}.cls-1,.cls-2,.cls-3,.cls-4,.cls-5,.cls-6{stroke-miterlimit:10;}.cls-2{stroke:#000;}.cls-3{fill:#f7e969;stroke:#f7e969;}.cls-4{fill:#ed0c0c;stroke:#ed0c0c;}.cls-5{fill:#1b4be2;stroke:#1b4be2;}.cls-6{fill:#5e5e5e;stroke:#5e5e5e;}</style></defs><title>blåbil</title><circle class="cls-1" cx="141.56" cy="223.43" r="37"/><circle class="cls-2" cx="361.56" cy="223.43" r="37"/><circle class="cls-3" cx="20.56" cy="153.43" r="13"/><circle class="cls-4" cx="455.56" cy="140.43" r="13"/><path class="cls-5" d="M16.5,246.5s-19-110,104-114c0,0-22-113,132-115,0,0,137-18,143,104,0,0,99-13,96,112l-68,2s-44-60-93,1l-130,3s-51-62-91,7Z" transform="translate(-14.94 -16.07)"/><path class="cls-6" d="M140.5,127.5s-11-88,96-96v96Z" transform="translate(-14.94 -16.07)"/><path class="cls-6" d="M253.5,31.5v96h119S368.5,22.5,253.5,31.5Z" transform="translate(-14.94 -16.07)"/></svg>
