<svg xmlns="http://www.w3.org/2000/svg" width="1400" height="490" viewBox="0 0 1400 490"><defs><style>.cls-1,.cls-10,.cls-4,.cls-8,.cls-9{stroke:#000;}.cls-1,.cls-10,.cls-2,.cls-3,.cls-4,.cls-5,.cls-6,.cls-7,.cls-8,.cls-9{stroke-miterlimit:10;}.cls-1,.cls-2,.cls-3,.cls-5,.cls-6,.cls-7{stroke-width:2px;}.cls-2{fill:#b29279;stroke:#b29279;}.cls-3{stroke:#020202;}.cls-10,.cls-4,.cls-9{fill:none;}.cls-4{stroke-linecap:square;}.cls-10,.cls-4{stroke-width:5px;}.cls-5{fill:#166089;stroke:#166089;}.cls-10,.cls-5,.cls-6,.cls-9{stroke-linecap:round;}.cls-6{fill:#6d131a;stroke:#6d131a;}.cls-7{fill:#992525;stroke:#992525;}.cls-8,.cls-9{stroke-width:6px;}</style></defs><title>boy02</title><g id="sprite"><path class="cls-1" d="M852,404.87l-11.63,29.42s-19.09-16.89-35.22,7.63l46.58,17.94L870.59,412Z"/><path class="cls-1" d="M926.73,406.53l13.14,28.81S914.29,437,920.73,465.5l45.59-20.27L945,398.42Z"/><path class="cls-2" d="M774.87,357.85,775,76.5s-3.09-52.11,65-51.2S962,25.25,962,25.25s59.3-8.15,59.12,63.56-.27,262.24-.27,262.24,9.83,64.19-73.6,64.14l-119.44-.06S773.84,416.09,774.87,357.85Z"/><path class="cls-3" d="M774.92,95.59S757,25.15,840,25.19s111,.22,111,.22,76.28-14.26,70.11,70.3Z"/><line class="cls-4" x1="710.5" y1="93.74" x2="775.5" y2="93.77"/><path class="cls-5" d="M774.89,315.4s76,38.53,246-11.73l0,55.28s4,52.32-63,56.24l-130-.06s-53,1.95-53-56.3Z"/><path class="cls-6" d="M773.24,196.44s95.29,56.83,247.78-16.9l-.1,124.13S855.38,349.49,775.39,315.4Z"/><polygon class="cls-7" points="946.14 260.29 958.12 280.83 973.72 271.96 961.74 251.43 946.14 260.29"/><ellipse class="cls-2" cx="970.92" cy="280.94" rx="17" ry="16.78"/><ellipse class="cls-8" cx="826.98" cy="143.65" rx="11" ry="10.86"/><ellipse class="cls-8" cx="886.98" cy="143.68" rx="11" ry="10.86"/><path class="cls-9" d="M909,179.23c0,5.46-25.5,9.86-57,9.84"/><line class="cls-9" x1="842.64" y1="110.76" x2="812.35" y2="117.31"/><line class="cls-9" x1="906.54" y1="119.73" x2="876.45" y2="112.35"/><path class="cls-2" d="M1129.13,362.44l-.06-285.14s-3.07-52.82,64.16-51.93,120.54-.11,120.54-.11,58.54-8.29,58.4,64.39-.15,265.79-.15,265.79,9.74,65.05-72.64,65H1181.46S1128.15,421.48,1129.13,362.44Z"/><path class="cls-3" d="M1129.05,96.64s-17.69-71.38,64.26-71.38,109.6.16,109.6.16,75.3-14.48,69.24,71.22Z"/><line class="cls-10" x1="1061.5" y1="94.3" x2="1125.68" y2="94.3"/><path class="cls-1" d="M1196.27,413.47v32s-23.69-9-29.62,20H1216v-52Z"/><path class="cls-1" d="M1280.2,413.47v32s-23.7-9-29.62,20H1300v-52Z"/><path class="cls-5" d="M1129.13,319.42s75,39,242.89-12v56s4,53-62.2,57H1181.46s-52.33,2-52.33-57Z"/><path class="cls-6" d="M1127.44,198.86s94.11,57.55,244.63-17.25l0,125.8s-163.41,46.53-242.4,12Z"/><rect class="cls-7" x="1302.91" y="257.39" width="17.77" height="24.01"/><ellipse class="cls-2" cx="1311.79" cy="286.4" rx="16.78" ry="17.01"/><ellipse class="cls-8" cx="1180.48" cy="145.33" rx="10.86" ry="11.01"/><ellipse class="cls-8" cx="1239.72" cy="145.33" rx="10.86" ry="11.01"/><path class="cls-9" d="M1261.44,181.35c0,5.53-25.17,10-56.28,10"/><line class="cls-9" x1="1195.92" y1="111.98" x2="1166.02" y2="118.64"/><line class="cls-9" x1="1259.01" y1="121.04" x2="1229.31" y2="113.58"/><path class="cls-1" d="M151.11,402.4l-11.62,29.43s-19.1-16.88-35.22,7.64l46.59,17.93,18.88-47.83Z"/><path class="cls-1" d="M225.88,404,239,432.83s-25.58,1.64-19.13,30.17l45.58-20.29-21.38-46.79Z"/><path class="cls-2" d="M74,355.42,73.94,74.09s-3.11-52.11,65-51.23S261,22.75,261,22.75s59.3-8.18,59.15,63.53S320,348.51,320,348.51s9.86,64.18-73.58,64.17H127S73,413.66,74,355.42Z"/><path class="cls-3" d="M73.92,93.18S56,22.75,139,22.75s111,.16,111,.16,76.27-14.29,70.14,70.27Z"/><line class="cls-10" x1="9.5" y1="91.36" x2="74.5" y2="91.36"/><path class="cls-5" d="M74,313s76,38.5,246-11.84v55.28s4,52.32-63,56.27H127s-53,2-53-56.27Z"/><path class="cls-6" d="M72.29,194s95.32,56.78,247.77-17l0,124.13S154.51,347,74.5,313Z"/><rect class="cls-7" x="250.01" y="251.77" width="18" height="23.69"/><ellipse class="cls-2" cx="259.01" cy="280.4" rx="17" ry="16.78"/><ellipse class="cls-8" cx="126.01" cy="141.21" rx="11" ry="10.86"/><ellipse class="cls-8" cx="186.01" cy="141.21" rx="11" ry="10.86"/><path class="cls-9" d="M208,176.75c0,5.45-25.5,9.87-57,9.87"/><line class="cls-9" x1="141.65" y1="108.31" x2="111.37" y2="114.88"/><line class="cls-9" x1="205.56" y1="117.25" x2="175.46" y2="109.89"/><path class="cls-2" d="M425,362.44,424.94,77.3s-3.11-52.82,65-51.93S612,25.26,612,25.26s59.3-8.29,59.15,64.39S671,355.44,671,355.44s9.86,65.05-73.58,65H478S424,421.48,425,362.44Z"/><path class="cls-3" d="M424.92,96.64S407,25.26,490,25.26s111,.16,111,.16,76.27-14.48,70.14,71.22Z"/><line class="cls-10" x1="360.5" y1="94.8" x2="425.5" y2="94.8"/><path class="cls-1" d="M493,413.47v32s-24-9-30,20h50v-52Z"/><path class="cls-1" d="M578,413.47v32s-24-9-30,20h50v-52Z"/><path class="cls-5" d="M425,319.42s76,39,246-12v56s4,53-63,57H478s-53,2-53-57Z"/><path class="cls-6" d="M423.29,198.86s95.32,57.55,247.77-17.25l0,125.8s-165.51,46.53-245.52,12Z"/><rect class="cls-7" x="598.01" y="260.39" width="24.01" height="18" transform="translate(112.26 713.17) rotate(-65.55)"/><ellipse class="cls-2" cx="602.01" cy="290.41" rx="17" ry="17.01"/><ellipse class="cls-8" cx="477.01" cy="145.33" rx="11" ry="11.01"/><ellipse class="cls-8" cx="537.01" cy="145.33" rx="11" ry="11.01"/><path class="cls-9" d="M559,181.35c0,5.53-25.5,10-57,10"/><line class="cls-9" x1="492.65" y1="111.98" x2="462.37" y2="118.64"/><line class="cls-9" x1="556.56" y1="121.04" x2="526.46" y2="113.58"/></g></svg>
