<svg xmlns="http://www.w3.org/2000/svg" width="140" height="70" viewBox="0 0 140 70"><defs><style>.cls-1{fill:#fce172;}.cls-2{fill:#fcd203;stroke:#fcd203;stroke-miterlimit:10;}.cls-3{font-size:14px;font-family:MyriadPro-Regular, Myriad Pro;}.cls-4{letter-spacing:-0.03em;}.cls-5{letter-spacing:0em;}.cls-6{letter-spacing:0em;}.cls-7{letter-spacing:0em;}.cls-8{letter-spacing:0em;}</style></defs><title>forlæns</title><g id="Layer_1" data-name="Layer 1"><rect x="7.54" y="4.5" width="129.96" height="64"/><path d="M137,5V68H8V5H137m1-1H7V69H138V4Z"/><rect class="cls-1" x="1.5" y="1.5" width="129.96" height="64"/><path d="M131,2V65H2V2H131m1-1H1V66H132V1Z"/><polygon class="cls-2" points="7.04 64.5 130 3.5 130 64.5 7.04 64.5"/></g><g id="Layer_2" data-name="Layer 2"><text class="cls-3" transform="translate(41.45 27.62)"><tspan class="cls-4">F</tspan><tspan x="6.38" y="0">o</tspan><tspan class="cls-5" x="14.07" y="0">r</tspan><tspan x="18.7" y="0">læns </tspan><tspan x="-26.59" y="16.8">pa</tspan><tspan class="cls-6" x="-11.88" y="16.8">r</tspan><tspan x="-7.37" y="16.8">allelpa</tspan><tspan class="cls-7" x="31.02" y="16.8">r</tspan><tspan x="35.65" y="16.8">ke</tspan><tspan class="cls-8" x="49.23" y="16.8">r</tspan><tspan x="53.86" y="16.8">ing</tspan></text></g></svg>
