<svg xmlns="http://www.w3.org/2000/svg" width="31.51" height="65.22" viewBox="0 0 31.51 65.22"><defs><style>.cls-1{fill:#fce172;}.cls-2{fill:#fcd203;stroke:#fcd203;stroke-miterlimit:10;}.cls-3{font-size:14px;font-family:MyriadPro-Regular, Myriad Pro;}.cls-4{letter-spacing:-0.03em;}.cls-5{letter-spacing:0em;}.cls-6{letter-spacing:0em;}.cls-7{letter-spacing:0em;}.cls-8{letter-spacing:0em;}</style></defs><title>forlæns</title><g id="Layer_1" data-name="Layer 1"><rect x="-11.95" y="-0.59" width="129.96" height="64"/><path d="M117.51-.09v63h-129v-63h129m1-1h-131v65h131v-65Z"/><rect class="cls-1" x="-17.99" y="-3.59" width="129.96" height="64"/><path d="M111.47-3.09v63h-129v-63h129m1-1h-131v65h131v-65Z"/><polygon class="cls-2" points="-12.45 59.41 110.51 -1.59 110.51 59.41 -12.45 59.41"/></g><g id="Layer_2" data-name="Layer 2"><text class="cls-3" transform="translate(21.96 22.53)"><tspan class="cls-4">F</tspan><tspan x="6.38" y="0">o</tspan><tspan class="cls-5" x="14.07" y="0">r</tspan><tspan x="18.7" y="0">læns </tspan><tspan x="-26.59" y="16.8">pa</tspan><tspan class="cls-6" x="-11.88" y="16.8">r</tspan><tspan x="-7.37" y="16.8">allelpa</tspan><tspan class="cls-7" x="31.02" y="16.8">r</tspan><tspan x="35.65" y="16.8">ke</tspan><tspan class="cls-8" x="49.23" y="16.8">r</tspan><tspan x="53.86" y="16.8">ing</tspan></text></g></svg>
