<svg xmlns="http://www.w3.org/2000/svg" width="62.2" height="62.71" viewBox="0 0 62.2 62.71"><defs><style>.cls-1{fill:#fce172;}.cls-2{fill:#fcd203;stroke:#fcd203;stroke-miterlimit:10;}.cls-3{font-size:14px;font-family:MyriadPro-Regular, Myriad Pro;}.cls-4{letter-spacing:-0.03em;}.cls-5{letter-spacing:0em;}.cls-6{letter-spacing:0em;}.cls-7{letter-spacing:0em;}.cls-8{letter-spacing:0em;}</style></defs><title>forlæns</title><g id="Layer_1" data-name="Layer 1"><rect x="1.74" y="0.21" width="129.96" height="64"/><path d="M131.2.71v63H2.24V.71h129m1-1H1.24v65h131v-65Z"/><rect class="cls-1" x="-4.3" y="-2.79" width="129.96" height="64"/><path d="M125.16-2.29v63H-3.8v-63h129m1-1H-4.8v65h131v-65Z"/><polygon class="cls-2" points="1.24 60.21 124.2 -0.79 124.2 60.21 1.24 60.21"/></g><g id="Layer_2" data-name="Layer 2"><text class="cls-3" transform="translate(35.65 23.33)"><tspan class="cls-4">F</tspan><tspan x="6.38" y="0">o</tspan><tspan class="cls-5" x="14.07" y="0">r</tspan><tspan x="18.7" y="0">læns </tspan><tspan x="-26.59" y="16.8">pa</tspan><tspan class="cls-6" x="-11.88" y="16.8">r</tspan><tspan x="-7.37" y="16.8">allelpa</tspan><tspan class="cls-7" x="31.02" y="16.8">r</tspan><tspan x="35.65" y="16.8">ke</tspan><tspan class="cls-8" x="49.23" y="16.8">r</tspan><tspan x="53.86" y="16.8">ing</tspan></text></g></svg>
