<svg xmlns="http://www.w3.org/2000/svg" width="339" height="515" viewBox="0 0 339 515"><defs><style>.cls-1{fill:#9b7350;stroke:#9b7350;}.cls-1,.cls-2,.cls-3,.cls-4,.cls-5,.cls-6,.cls-7,.cls-8,.cls-9{stroke-miterlimit:10;}.cls-1,.cls-2,.cls-3,.cls-4,.cls-5,.cls-7{stroke-width:2px;}.cls-2{fill:#492c0f;stroke:#492c0f;}.cls-3{fill:#595099;stroke:#595099;}.cls-4,.cls-8,.cls-9{stroke:#000;}.cls-5{fill:#3e3889;stroke:#3e3889;}.cls-6,.cls-9{fill:none;stroke-linecap:round;}.cls-6{stroke:#56361a;stroke-width:5px;}.cls-7{fill:#292838;stroke:#292838;}.cls-8,.cls-9{stroke-width:6px;}</style></defs><title>kørelærer</title><g id="Layer_2" data-name="Layer 2"><path class="cls-1" d="M47,48.21V385s-4,58,53,58H241s52,2,52-64V106.18s6-61-59-58S47,48.21,47,48.21Z"/></g><g id="Layer_6" data-name="Layer 6"><path class="cls-2" d="M46.94,182.93S184,215,237,178c0,0,19-48-2-72,0,0-163,26-188-58l195,.17S293,44,293,106V245.56s-114.15,122.55-244.08,0Z"/></g><g id="Layer_3" data-name="Layer 3"><path class="cls-3" d="M49,245s112,120,244,0l.15,127H46.94Z"/></g><g id="Layer_8" data-name="Layer 8"><path class="cls-4" d="M115,433v32s-24-9-30,20h50V433Z"/><path class="cls-4" d="M206,433v32s-24-9-30,20h50V433Z"/></g><g id="Layer_11" data-name="Layer 11"><rect class="cls-5" x="226" y="313" width="18" height="24"/></g><g id="Layer_9" data-name="Layer 9"><path class="cls-6" d="M85.5,208.5c0,28.19,5.37,51,12,51"/><path class="cls-6" d="M124.5,216.5c0,23.77,4.47,43,10,43"/><path class="cls-6" d="M164.5,216.5c0,23.77-1.34,43-3,43"/><path class="cls-6" d="M207.5,216.5c0,26.53-6.26,48-14,48"/><path class="cls-6" d="M252.5,208.5c0,28.19-7.16,51-16,51"/><path class="cls-6" d="M97.5,61.5c0,13.27,23.26,24,52,24"/></g><g id="Layer_10" data-name="Layer 10"><path class="cls-5" d="M135,293l14,20s85.62-7,144.31-53.5L293,246C282.35,258.73,198.06,312.83,135,293Z"/><path class="cls-5" d="M47,246s34,34,88,47l-16,16s-59.61-37.92-72.31-55.46Z"/></g><g id="Layer_7" data-name="Layer 7"><path class="cls-7" d="M47,373H293s8.84,77-67.58,70H100S42,450,47,373Z"/></g><g id="Layer_12" data-name="Layer 12"><circle class="cls-1" cx="235" cy="342" r="17"/></g><g id="Layer_4" data-name="Layer 4"><circle class="cls-8" cx="165" cy="156" r="11"/><circle class="cls-8" cx="104" cy="156" r="11"/><line class="cls-9" x1="89" y1="135" x2="119" y2="135"/><line class="cls-9" x1="150" y1="135" x2="180" y2="135"/></g></svg>
