<svg xmlns="http://www.w3.org/2000/svg" width="400" height="510" viewBox="0 0 400 510"><defs><style>.cls-1{fill:#b29279;stroke:#b29279;}.cls-1,.cls-2,.cls-3,.cls-4,.cls-5,.cls-6,.cls-7,.cls-8,.cls-9{stroke-miterlimit:10;}.cls-1,.cls-2,.cls-4,.cls-5,.cls-6,.cls-7{stroke-width:2px;}.cls-2{stroke:#020202;}.cls-3,.cls-9{fill:none;}.cls-3,.cls-4,.cls-8,.cls-9{stroke:#000;}.cls-3,.cls-5,.cls-6,.cls-9{stroke-linecap:round;}.cls-3{stroke-width:5px;}.cls-5{fill:#166089;stroke:#166089;}.cls-6{fill:#6d131a;stroke:#6d131a;}.cls-7{fill:#992525;stroke:#992525;}.cls-8,.cls-9{stroke-width:6px;}</style></defs><title>køreelev</title><g id="Layer_4" data-name="Layer 4"><path class="cls-1" d="M111,373l-.06-285s-3.11-52.8,65-51.9S298,36,298,36s59.29-8.29,59.15,64.36S357,366,357,366s9.86,65-73.57,65H164S110,432,111,373Z"/></g><g id="Layer_5" data-name="Layer 5"><path class="cls-2" d="M110.92,107.34S93,36,176,36s111,.16,111,.16,76.27-14.47,70.13,71.18Z"/><line class="cls-3" x1="46.5" y1="105.5" x2="111.5" y2="105.5"/></g><g id="Layer_10" data-name="Layer 10"><path class="cls-4" d="M179,424v32s-24-9-30,20h50V424Z"/><path class="cls-4" d="M264,424v32s-24-9-30,20h50V424Z"/></g><g id="Layer_7" data-name="Layer 7"><path class="cls-5" d="M111,330s76,39,246-12v56s4,53-63,57H164s-53,2-53-57Z"/></g><g id="Layer_6" data-name="Layer 6"><path class="cls-6" d="M109.29,209.5S204.6,267,357.05,192.26L357,318s-165.5,46.5-245.5,12Z"/><rect class="cls-7" x="287" y="268" width="18" height="24"/></g><g id="Layer_8" data-name="Layer 8"><circle class="cls-1" cx="296" cy="297" r="17"/></g><g id="Layer_9" data-name="Layer 9"><circle class="cls-8" cx="163" cy="156" r="11"/><circle class="cls-8" cx="223" cy="156" r="11"/><path class="cls-9" d="M245,192c0,5.53-25.49,10-57,10"/><line class="cls-9" x1="178.64" y1="122.67" x2="148.36" y2="129.33"/><line class="cls-9" x1="242.54" y1="131.73" x2="212.46" y2="124.27"/></g></svg>
