<svg id="sprite" xmlns="http://www.w3.org/2000/svg" width="1400" height="490" viewBox="0 0 1400 490"><defs><style>.cls-1,.cls-8,.cls-9{stroke:#000;}.cls-1,.cls-2,.cls-3,.cls-4,.cls-5,.cls-6,.cls-7,.cls-8,.cls-9{stroke-miterlimit:10;}.cls-1,.cls-2,.cls-3,.cls-4,.cls-5,.cls-7{stroke-width:2px;}.cls-2{fill:#9b7350;stroke:#9b7350;}.cls-3{fill:#492c0f;stroke:#492c0f;}.cls-4{fill:#595099;stroke:#595099;}.cls-5{fill:#3e3889;stroke:#3e3889;}.cls-6,.cls-9{fill:none;stroke-linecap:round;}.cls-6{stroke:#56361a;stroke-width:5px;}.cls-7{fill:#292838;stroke:#292838;}.cls-8,.cls-9{stroke-width:6px;}</style></defs><title>man</title><path class="cls-1" d="M113,404.88,101.38,434.3S82.25,417.44,66.12,442l46.67,17.88L131.67,412Z"/><path class="cls-1" d="M187.79,406.54l13.3,28.72s-25.61,1.76-19,30.24L227.63,445,206,398.35Z"/><path class="cls-2" d="M41.81,24.71V357s-4,57.19,53.08,57.19H236.11s52.08,2,52.08-63.1V81.9s6-60.15-59.09-57.19S41.81,24.71,41.81,24.71Z"/><path class="cls-3" d="M41.75,157.6S179,189.25,232.1,152.75c0,0,19-47.36-2-71,0,0-163.26,25.65-188.29-57.22l195.26.17s51.12-4.12,51.12,57.05V219.39s-114.33,120.9-244.46,0Z"/><path class="cls-4" d="M43.81,218.84s112.17,118.38,244.38,0l.14,125.29H41.75Z"/><polygon class="cls-5" points="220.7 286.11 221.52 309.83 239.5 309.41 238.68 285.69 220.7 286.11"/><path class="cls-6" d="M80.37,182.83c0,27.81,5.37,50.32,12,50.32"/><path class="cls-6" d="M119.43,190.73c0,23.44,4.48,42.42,10,42.42"/><path class="cls-6" d="M159.49,190.73c0,23.44-1.35,42.42-3,42.42"/><path class="cls-6" d="M202.56,190.73c0,26.17-6.28,47.35-14,47.35"/><path class="cls-6" d="M247.62,182.83c0,27.81-7.16,50.32-16,50.32"/><path class="cls-6" d="M92.38,37.82c0,13.08,23.3,23.67,52.09,23.67"/><path class="cls-5" d="M129.94,266.19l14,19.73s85.76-6.9,144.54-52.77l-.31-13.32C277.53,232.39,193.1,285.76,129.94,266.19Z"/><path class="cls-5" d="M41.81,219.83s34.05,33.54,88.13,46.36l-16,15.79S54.21,244.57,41.5,227.26Z"/><path class="cls-7" d="M41.81,345.11H288.19s8.85,76-67.69,69.06H94.89S36.8,421.08,41.81,345.11Z"/><ellipse class="cls-2" cx="230.11" cy="315.52" rx="17.03" ry="16.77"/><ellipse class="cls-8" cx="159.99" cy="131.04" rx="11.02" ry="10.85"/><ellipse class="cls-8" cx="98.89" cy="131.04" rx="11.02" ry="10.85"/><line class="cls-9" x1="83.87" y1="110.33" x2="113.92" y2="110.33"/><line class="cls-9" x1="144.97" y1="110.33" x2="175.01" y2="110.33"/><path class="cls-2" d="M391.81,24.72v339.9s-4,58.5,53.08,58.5H586.11s52.08,2,52.08-64.56V83.22s6-61.53-59.09-58.5S391.81,24.72,391.81,24.72Z"/><path class="cls-3" d="M391.75,160.66S529,193,582.1,155.69c0,0,19-48.44-2-72.66,0,0-163.26,26.24-188.29-58.53l195.26.18S638.19,20.46,638.19,83V223.87s-114.33,123.67-244.46,0Z"/><path class="cls-4" d="M393.81,223.3s112.17,121.09,244.38,0l.14,128.17H391.75Z"/><path class="cls-1" d="M459.91,413v32.3s-24-9.09-30,20.18h50.07V413Z"/><path class="cls-1" d="M551.05,413v32.3s-24-9.09-30,20.18h50.07V413Z"/><polygon class="cls-5" points="578.75 288.96 566.11 309.56 581.45 319.11 594.09 298.51 578.75 288.96"/><path class="cls-6" d="M430.37,186.47c0,28.45,5.37,51.47,12,51.47"/><path class="cls-6" d="M469.43,194.54c0,24,4.48,43.4,10,43.4"/><path class="cls-6" d="M509.49,194.54c0,24-1.35,43.4-3,43.4"/><path class="cls-6" d="M552.56,194.54c0,26.78-6.28,48.44-14,48.44"/><path class="cls-6" d="M597.62,186.47c0,28.45-7.16,51.47-16,51.47"/><path class="cls-6" d="M442.38,38.12c0,13.39,23.3,24.22,52.09,24.22"/><path class="cls-5" d="M479.94,271.74l14,20.19s85.76-7.07,144.54-54l-.31-13.63C627.53,237.16,543.1,291.75,479.94,271.74Z"/><path class="cls-5" d="M391.81,224.31s34.05,34.31,88.13,47.43l-16,16.15s-59.71-38.27-72.42-56Z"/><path class="cls-7" d="M391.81,352.47H638.19s8.85,77.71-67.69,70.65H444.89S386.8,430.18,391.81,352.47Z"/><ellipse class="cls-2" cx="571.17" cy="322.29" rx="17.03" ry="17.16"/><ellipse class="cls-8" cx="509.99" cy="133.49" rx="11.02" ry="11.1"/><ellipse class="cls-8" cx="448.89" cy="133.49" rx="11.02" ry="11.1"/><line class="cls-9" x1="433.87" y1="112.3" x2="463.92" y2="112.3"/><line class="cls-9" x1="494.97" y1="112.3" x2="525.01" y2="112.3"/><path class="cls-1" d="M813,404.88,801.38,434.3s-19.13-16.86-35.26,7.66l46.67,17.88L831.67,412Z"/><path class="cls-1" d="M887.79,406.54l13.3,28.72s-25.61,1.76-19,30.24L927.63,445,906,398.35Z"/><path class="cls-2" d="M741.81,24.71V357s-4,57.19,53.08,57.19H936.11s52.08,2,52.08-63.1V81.9s6-60.15-59.09-57.19S741.81,24.71,741.81,24.71Z"/><path class="cls-3" d="M741.75,157.6S879,189.25,932.1,152.75c0,0,19-47.36-2-71,0,0-163.26,25.65-188.29-57.22l195.26.17s51.12-4.12,51.12,57.05V219.39s-114.33,120.9-244.46,0Z"/><path class="cls-4" d="M743.81,218.84s112.17,118.38,244.38,0l.14,125.29H741.75Z"/><polygon class="cls-5" points="917.07 290.39 926.56 312.14 943.13 305.13 933.63 283.38 917.07 290.39"/><path class="cls-6" d="M780.37,182.83c0,27.81,5.37,50.32,12,50.32"/><path class="cls-6" d="M819.43,190.73c0,23.44,4.48,42.42,10,42.42"/><path class="cls-6" d="M859.49,190.73c0,23.44-1.35,42.42-3,42.42"/><path class="cls-6" d="M902.56,190.73c0,26.17-6.28,47.35-14,47.35"/><path class="cls-6" d="M947.62,182.83c0,27.81-7.16,50.32-16,50.32"/><path class="cls-6" d="M792.38,37.82c0,13.08,23.3,23.67,52.09,23.67"/><path class="cls-5" d="M829.94,266.19l14,19.73s85.76-6.9,144.54-52.77l-.31-13.32C977.53,232.39,893.1,285.76,829.94,266.19Z"/><path class="cls-5" d="M741.81,219.83s34.05,33.54,88.13,46.36l-16,15.79s-59.71-37.41-72.42-54.72Z"/><path class="cls-7" d="M741.81,345.11H988.19s8.85,76-67.69,69.06H794.89S736.8,421.08,741.81,345.11Z"/><ellipse class="cls-2" cx="940.11" cy="315.52" rx="17.03" ry="16.77"/><ellipse class="cls-8" cx="859.99" cy="131.04" rx="11.02" ry="10.85"/><ellipse class="cls-8" cx="798.89" cy="131.04" rx="11.02" ry="10.85"/><line class="cls-9" x1="783.87" y1="110.33" x2="813.92" y2="110.33"/><line class="cls-9" x1="844.97" y1="110.33" x2="875.01" y2="110.33"/><path class="cls-2" d="M1091.81,24.72v339.9s-4,58.5,53.08,58.5h141.22s52.08,2,52.08-64.56V83.22s6-61.53-59.09-58.5S1091.81,24.72,1091.81,24.72Z"/><path class="cls-3" d="M1091.75,160.66s137.27,32.37,190.35-5c0,0,19-48.44-2-72.66,0,0-163.26,26.24-188.29-58.53l195.26.18s51.12-4.22,51.12,58.35V223.87s-114.33,123.67-244.46,0Z"/><path class="cls-4" d="M1093.81,223.3s112.17,121.09,244.38,0l.14,128.17H1091.75Z"/><path class="cls-1" d="M1159.91,413v32.3s-24-9.09-30,20.18h50.07V413Z"/><path class="cls-1" d="M1251.05,413v32.3s-24-9.09-30,20.18h50.07V413Z"/><rect class="cls-5" x="1271.08" y="291.93" width="18.03" height="24.22"/><path class="cls-6" d="M1130.37,186.47c0,28.45,5.37,51.47,12,51.47"/><path class="cls-6" d="M1169.43,194.54c0,24,4.48,43.4,10,43.4"/><path class="cls-6" d="M1209.49,194.54c0,24-1.35,43.4-3,43.4"/><path class="cls-6" d="M1252.56,194.54c0,26.78-6.28,48.44-14,48.44"/><path class="cls-6" d="M1297.62,186.47c0,28.45-7.16,51.47-16,51.47"/><path class="cls-6" d="M1142.38,38.12c0,13.39,23.3,24.22,52.09,24.22"/><path class="cls-5" d="M1179.94,271.74l14,20.19s85.76-7.07,144.54-54l-.31-13.63C1327.53,237.16,1243.1,291.75,1179.94,271.74Z"/><path class="cls-5" d="M1091.81,224.31s34,34.31,88.13,47.43l-16,16.15s-59.71-38.27-72.42-56Z"/><path class="cls-7" d="M1091.81,352.47h246.38s8.85,77.71-67.69,70.65H1144.89S1086.8,430.18,1091.81,352.47Z"/><ellipse class="cls-2" cx="1280.1" cy="321.19" rx="17.03" ry="17.16"/><ellipse class="cls-8" cx="1209.99" cy="133.49" rx="11.02" ry="11.1"/><ellipse class="cls-8" cx="1148.89" cy="133.49" rx="11.02" ry="11.1"/><line class="cls-9" x1="1133.87" y1="112.3" x2="1163.92" y2="112.3"/><line class="cls-9" x1="1194.97" y1="112.3" x2="1225.01" y2="112.3"/></svg>
